D:\school\WTK\thesis\model\3dpredictsim\Results\batch_windlass\Pog_s1_tmt_bCst_d05_k500_WL10_ig24_pas_GRF.mot
nRows=20
nColumns=19

name D:\school\WTK\thesis\model\3dpredictsim\Results\batch_windlass\Pog_s1_tmt_bCst_d05_k500_WL10_ig24_pas_GRF.mot
datacolumns 19
datarows 20
range 0.5421104376 0.7481124039
endheader
time 	ground_force_vx	ground_force_vy	ground_force_vz	ground_force_px	ground_force_py	ground_force_pz	1_ground_force_vx	1_ground_force_vy	1_ground_force_vz	1_ground_force_px	1_ground_force_py	1_ground_force_pz	ground_torque_x	ground_torque_y	ground_torque_z	1_ground_torque_x	1_ground_torque_y	1_ground_torque_z
        0.5421104376	      108.3269308767	      505.9662499549	        1.7888422633	        0.3492382288	        0.0000000000	        0.0364954260	      -82.0410688512	       58.1338703668	      -20.3076429444	        0.8176207772	        0.0000000000	       -0.0416094625	        0.0000000000	        0.0000000000	        0.0000000000	        0.0000000000	        0.0000000000	        0.0000000000	
        0.5529526464	       91.3641600654	      421.6799435923	        5.7885302344	        0.3532577865	        0.0000000000	        0.0352437926	     -127.1902221154	      114.0682513448	      -41.8947447851	        0.8296977535	        0.0000000000	       -0.0394134552	        0.0000000000	        0.0000000000	        0.0000000000	        0.0000000000	        0.0000000000	        0.0000000000	
        0.5637948552	       65.0513855055	      328.6550019023	       13.1665126318	        0.3594227233	        0.0000000000	        0.0329714642	     -114.1525909337	      232.6280802242	      -63.0021032171	        0.8423774602	        0.0000000000	       -0.0396865183	        0.0000000000	        0.0000000000	        0.0000000000	        0.0000000000	        0.0000000000	        0.0000000000	
        0.5746370639	       34.6847571379	      229.1637658038	       10.8352106744	        0.3701891479	        0.0000000000	        0.0279985057	      -64.4432244887	      469.2786369518	      -10.8920734100	        0.8532799360	        0.0000000000	       -0.0408978274	        0.0000000000	        0.0000000000	        0.0000000000	        0.0000000000	        0.0000000000	        0.0000000000	
        0.5854792727	       13.5069842252	      157.9380158032	       11.0847460482	        0.3837748843	        0.0000000000	        0.0207779819	      -77.4907212488	      678.1704366070	        8.6061681713	        0.8612994509	        0.0000000000	       -0.0418912423	        0.0000000000	        0.0000000000	        0.0000000000	        0.0000000000	        0.0000000000	        0.0000000000	
        0.5963214814	        5.3757361660	      130.7303229543	       11.6446208237	        0.3833952810	        0.0000000000	        0.0210571878	     -106.6258584121	      818.1034558848	       14.4175848846	        0.8696237464	        0.0000000000	       -0.0419700710	        0.0000000000	        0.0000000000	        0.0000000000	        0.0000000000	        0.0000000000	        0.0000000000	
        0.6071636902	        3.1354495242	       93.4120682645	       12.1918681618	        0.3839465556	        0.0000000000	        0.0212032624	     -121.7427828595	      894.2342899461	       13.2398270179	        0.8787641021	        0.0000000000	       -0.0412964000	        0.0000000000	        0.0000000000	        0.0000000000	        0.0000000000	        0.0000000000	        0.0000000000	
        0.6180058989	       -5.2045243935	       51.6933280422	       10.0452237150	        0.3837922484	        0.0000000000	        0.0213019801	     -121.7903966602	      886.1300895325	       10.7011280447	        0.8845802971	        0.0000000000	       -0.0407409911	        0.0000000000	        0.0000000000	        0.0000000000	        0.0000000000	        0.0000000000	        0.0000000000	
        0.6288481077	       -4.0443873262	        7.1806149226	        1.7019122436	        0.0000000000	        0.0000000000	        0.0000000000	     -107.9571146404	      846.6200207315	        9.1260744516	        0.8881269817	        0.0000000000	       -0.0402999657	        0.0000000000	        0.0000000000	        0.0000000000	        0.0000000000	        0.0000000000	        0.0000000000	
        0.6396903164	        0.0014742012	       -0.0013724454	       -0.0000376848	        0.0000000000	        0.0000000000	        0.0000000000	      -93.4676440008	      802.9910421109	       10.5938670594	        0.8913590176	        0.0000000000	       -0.0399497895	        0.0000000000	        0.0000000000	        0.0000000000	        0.0000000000	        0.0000000000	        0.0000000000	
        0.6505325252	        0.0000226592	       -0.0000175667	        0.0000008056	        0.0000000000	        0.0000000000	        0.0000000000	      -79.5505372965	      760.4912820215	       12.1010909688	        0.8945579861	        0.0000000000	       -0.0397166001	        0.0000000000	        0.0000000000	        0.0000000000	        0.0000000000	        0.0000000000	        0.0000000000	
        0.6613747339	        0.0000213590	       -0.0000144278	        0.0000012139	        0.0000000000	        0.0000000000	        0.0000000000	      -67.2194782899	      721.9954655100	       12.8829625944	        0.8978556484	        0.0000000000	       -0.0395874376	        0.0000000000	        0.0000000000	        0.0000000000	        0.0000000000	        0.0000000000	        0.0000000000	
        0.6722169427	        0.0004302292	       -0.0002618133	        0.0000293380	        0.0000000000	        0.0000000000	        0.0000000000	      -56.1980286032	      688.4120426178	       13.7212399552	        0.9014142995	        0.0000000000	       -0.0395349658	        0.0000000000	        0.0000000000	        0.0000000000	        0.0000000000	        0.0000000000	        0.0000000000	
        0.6830591514	        0.0023146649	       -0.0012987710	        0.0001756375	        0.0000000000	        0.0000000000	        0.0000000000	      -46.8173028510	      660.2813353394	       15.1993836884	        0.9059216998	        0.0000000000	       -0.0395101117	        0.0000000000	        0.0000000000	        0.0000000000	        0.0000000000	        0.0000000000	        0.0000000000	
        0.6939013602	       -0.0186457533	        0.0098072705	       -0.0015348568	        0.0000000000	        0.0000000000	        0.0000000000	      -40.0809082968	      638.1038045076	       16.6453338555	        0.9112813985	        0.0000000000	       -0.0394881871	        0.0000000000	        0.0000000000	        0.0000000000	        0.0000000000	        0.0000000000	        0.0000000000	
        0.7047435689	       -0.0123612947	        0.0061597242	       -0.0010852789	        0.0000000000	        0.0000000000	        0.0000000000	      -34.9391228285	      620.8901707241	       17.4887791998	        0.9169181896	        0.0000000000	       -0.0394711210	        0.0000000000	        0.0000000000	        0.0000000000	        0.0000000000	        0.0000000000	        0.0000000000	
        0.7155857777	       -0.0085129517	        0.0040496996	       -0.0007818059	        0.0000000000	        0.0000000000	        0.0000000000	      -30.6021621390	      608.0082894131	       18.0574184289	        0.9228316695	        0.0000000000	       -0.0394431899	        0.0000000000	        0.0000000000	        0.0000000000	        0.0000000000	        0.0000000000	        0.0000000000	
        0.7264279864	       -0.0074655288	        0.0034118131	       -0.0007070354	        0.0000000000	        0.0000000000	        0.0000000000	      -27.3107887344	      598.2902697662	       18.2453716112	        0.9288341488	        0.0000000000	       -0.0394039704	        0.0000000000	        0.0000000000	        0.0000000000	        0.0000000000	        0.0000000000	        0.0000000000	
        0.7372701952	       -0.0086017074	        0.0037956250	       -0.0008265585	        0.0000000000	        0.0000000000	        0.0000000000	      -24.6347316042	      591.0379203058	       17.9953677120	        0.9347121410	        0.0000000000	       -0.0393604647	        0.0000000000	        0.0000000000	        0.0000000000	        0.0000000000	        0.0000000000	        0.0000000000	
        0.7481124039	       -0.0126619184	        0.0054162573	       -0.0012209093	        0.0000000000	        0.0000000000	        0.0000000000	      -22.2248718355	      585.8469992110	       17.6845829983	        0.9405189677	        0.0000000000	       -0.0393031789	        0.0000000000	        0.0000000000	        0.0000000000	        0.0000000000	        0.0000000000	        0.0000000000	
